# xmcd
#
# Track frame offsets: 
#        150
#        13883
#        25694
#        36923
#        47772
#        57953
#        69426
#        81384
#        94737
#        104175
#        116012
#        129027
#        141707
#        153672
#        167189
#        177674
#        190484
#        200648
#        213358
#        239758
#        252764
#        265885
#        279022
#        291959
#
# Disc length: 4220 seconds
#
# Revision: 1
# Processed by: cddbd v1.5.2PL0 Copyright (c) Steve Scherf et al.
# Submitted via: ExactAudioCopyFreeDBPlugin 1.0
#
DISCID=77107a18
DTITLE=Various Artist - A Road Leading Home:  Songs by Dan Penn
DYEAR=2013
DGENRE=Soul
TTITLE0=Ted Taylor - Without a Woman
TTITLE1=Billy Young - You Left the Water Running
TTITLE2=The Entertainers - I Tried to Tell You
TTITLE3=Linda Gail Lewis - Break Up the Party
TTITLE4=Dan Penn - Is A Blue Bird Blue
TTITLE5=Jeanie Fortune - Once More with Feeling
TTITLE6=Roy Hamilton - The Dark End of the Street
TTITLE7=Linda Carr - (Almost Persuaded to) Give Him One More Try
TTITLE8=Tommy Roe - Come On
TTITLE9=The Sweet Inspirations - Oh! What a Fool I've Been
TTITLE10=The Drifters - Far from the Maddening Crowd
TTITLE11=Laura Lee - Up Tight Good Man
TTITLE12=James and Bobby Purify - So Many Reasons
TTITLE13=Brenda Lee - Do Right Woman, Do Right Man
TTITLE14=Esther Phillips - Cheater Man
TTITLE15=Bobby Patterson - Long Ago
TTITLE16=The Blues Busters - I Can't Stop
TTITLE17=Percy Sledge - Rainbow Road
TTITLE18=Irma Thomas - Zero Willpower
TTITLE19=Ted Roddy and The Tearjoint Troubadors - Tearjoint
TTITLE20=The Hacienda Brothers - What's Wrong with Right
TTITLE21=Bobby Purify (Ben Moore) - Better to Have It
TTITLE22=Ronnie Milsap - I Hate You
TTITLE23=Albert King - Like a Road Leading Home
EXTD=
EXTT0=
EXTT1=
EXTT2=
EXTT3=
EXTT4=
EXTT5=
EXTT6=
EXTT7=
EXTT8=
EXTT9=
EXTT10=
EXTT11=
EXTT12=
EXTT13=
EXTT14=
EXTT15=
EXTT16=
EXTT17=
EXTT18=
EXTT19=
EXTT20=
EXTT21=
EXTT22=
EXTT23=
PLAYORDER=
